<?xml version="1.0" encoding="UTF-8"?>
<svg id="Layer_1" data-name="Layer 1" xmlns="http://www.w3.org/2000/svg" viewBox="0 0 1477.25 210.76">
  <defs>
    <style>
      .cls-1 {
        fill: #5470de;
      }
    </style>
  </defs>
  <g>
    <path class="cls-1" d="M0,105.31v-.14C0,40.09,37.13,0,95.57,0c46.87,0,81.31,29.22,86.68,70.72l.14,1.41h-35.72l-.71-2.68c-5.93-23.29-23.86-37.83-50.4-37.83-35.57,0-58.3,28.37-58.3,73.55v.14c0,45.32,22.87,73.83,58.3,73.83,25.97,0,44.19-13.98,50.82-39.1l.42-1.41h35.72l-.28,1.41c-5.22,41.79-39.81,70.72-86.68,70.72C36.99,210.76,0,170.39,0,105.31Z"/>
    <path class="cls-1" d="M190.42,105.31v-.14C190.42,40.09,227.55,0,285.99,0c46.87,0,81.31,29.22,86.68,70.72l.14,1.41h-35.72l-.71-2.68c-5.93-23.29-23.86-37.83-50.4-37.83-35.57,0-58.3,28.37-58.3,73.55v.14c0,45.32,22.87,73.83,58.3,73.83,25.97,0,44.19-13.98,50.82-39.1l.42-1.41h35.72l-.28,1.41c-5.22,41.79-39.81,70.72-86.68,70.72-58.58,0-95.57-40.37-95.57-105.45Z"/>
    <path class="cls-1" d="M387.76,3.53h36.42v203.7h-36.42V3.53Z"/>
    <path class="cls-1" d="M447.32,3.53h78.49c41.22,0,69.31,27.24,69.31,68.04v.28c0,40.66-28.09,68.04-69.31,68.04h-42.07v67.34h-36.42V3.53ZM483.74,33.32v77.22h33.03c26.12,0,41.36-14.12,41.36-38.54v-.28c0-24.42-15.25-38.4-41.36-38.4h-33.03Z"/>
  </g>
  <g>
    <path d="M676.49,34.16h-60.98V3.53h158.11v30.63h-60.84v173.07h-36.28V34.16Z"/>
    <path d="M758.21,57.6h35.15v25.83h.71c4.66-18.07,17.08-28.94,34.3-28.94,4.38,0,8.47.71,11.15,1.41v31.76c-2.96-1.13-8.33-1.98-14.26-1.98-19.9,0-31.9,12.56-31.9,34.73v86.82h-35.15V57.6Z"/>
    <path d="M835.7,164.6v-.28c0-26.54,20.61-42.49,56.89-44.75l39.1-2.4v-10.31c0-15.11-9.88-24.28-27.67-24.28-16.66,0-26.82,7.76-29.08,18.78l-.28,1.27h-32.61l.14-1.69c2.12-26.54,25.13-46.44,63.1-46.44s61.55,19.76,61.55,49.83v102.91h-35.15v-23.01h-.85c-8.61,15.67-25.27,25.55-45.03,25.55-29.93,0-50.11-18.49-50.11-45.17ZM896.26,182.95c20.19,0,35.43-13.41,35.43-31.2v-11.29l-34.16,2.12c-17.36,1.13-26.82,8.61-26.82,20.47v.14c0,12.28,10.17,19.76,25.55,19.76Z"/>
    <path d="M976.15,132.27v-.14c0-47.71,28.23-77.64,71.85-77.64,39.38,0,63.95,24.99,66.07,54.91l.14,1.13h-33.17l-.28-1.27c-2.96-14.54-13.69-26.26-32.33-26.26-22.16,0-36.42,18.78-36.42,49.41v.14c0,31.2,14.4,49.27,36.56,49.27,17.79,0,29.08-10.59,32.33-26.26l.28-1.27h33.17l-.14.99c-2.68,31.2-27.95,54.91-65.78,54.91-44.47,0-72.28-29.93-72.28-77.92Z"/>
    <path d="M1124.08,3.53h35.15v116.18h.71l55.9-62.11h40.66l-59.29,64.37,61.69,85.26h-40.52l-47.29-64.37-11.86,12.42v51.95h-35.15V3.53Z"/>
    <path d="M1246.46,132.84v-.14c0-47.15,27.53-78.21,70.3-78.21s69.31,30.07,69.31,75.24v11.29h-104.75c.57,26.26,14.96,41.79,37.83,41.79,17.51,0,28.94-9.32,32.33-19.34l.28-.99h32.89l-.42,1.55c-4.66,23.01-26.68,46.16-65.78,46.16-44.89,0-72-29.79-72-77.36ZM1281.75,117.59h70.16c-2.54-23.72-16.09-35.57-34.73-35.57s-32.61,12.56-35.43,35.57Z"/>
    <path d="M1395.94,57.6h35.15v25.83h.71c4.66-18.07,17.08-28.94,34.3-28.94,4.37,0,8.47.71,11.15,1.41v31.76c-2.96-1.13-8.33-1.98-14.26-1.98-19.9,0-31.9,12.56-31.9,34.73v86.82h-35.15V57.6Z"/>
  </g>
</svg>