<svg width="63" height="71" viewBox="0 0 63 71" fill="none" xmlns="http://www.w3.org/2000/svg">
<path d="M35.0994 1.23694C32.7684 -0.114787 29.8981 -0.114787 27.5672 1.23694L15.6235 8.15004C12.1753 10.1583 12.1753 15.1597 15.6235 17.1487L36.7753 29.3528C38.2394 30.2025 39.1448 31.7473 39.1448 33.4466V55.1128C39.1448 56.7928 38.2394 58.3569 36.7946 59.2066L33.6931 61.0024C32.229 61.8521 30.4375 61.8521 28.9734 61.0024L10.2489 50.1694C8.78483 49.3197 7.89869 47.7749 7.89869 46.0756V35.2231L31.3429 48.779V42.4645C31.3429 40.7845 30.4375 39.2204 28.9927 38.3707L0.0968018 21.648V48.9335C0.0968018 51.6369 1.5416 54.128 3.87253 55.4797L27.5864 69.2094C29.9174 70.5611 32.7877 70.5611 35.1186 69.2094L43.2095 64.5362C45.5404 63.1845 46.9852 60.6935 46.9852 57.99V30.55C46.9852 27.8466 45.5404 25.3556 43.2095 24.0038L25.6793 13.8659C24.7354 13.3252 24.7354 11.9542 25.6793 11.4135L28.9927 9.50177C30.4375 8.67142 32.229 8.67142 33.6931 9.50177L52.4176 20.2962C53.8817 21.1459 54.7871 22.6907 54.7871 24.39V48.6631L62.6082 44.1445V21.4935C62.6082 18.79 61.1634 16.299 58.8325 14.9473L35.0994 1.23694Z" fill="#5a6fd7"/>
</svg>
